<?xml version="1.0" encoding="UTF-8"?>
<svg version="1.1" viewBox="0 0 1412 988" width="1280" height="1280" xmlns="http://www.w3.org/2000/svg">
<path transform="translate(0)" d="m0 0h1412v988h-1412z" fill="#FCFCFD"/>
<path transform="translate(696,95)" d="m0 0h8l41 9 7 2 13 2 87 19 5 2v56l3 20 7 32 1 3v8l-4 8-2 94-52 5-29 2-25 1-53 1-61-1-53-3-43-4-30-5-10-3v-17l3-54 1-27-7 6-7 8-4 5-8 7-18 18-7 8-13 13-8 7-77 77-7 8-22 22-8 7-6 6 2 4 76 76 2 3 5 1v-11h592l-1 11 4-1 7-8 8-7 8-8 1-2h2l2-4 13-12 21-21 7-8 11-10h2v-3l-8-7-9-9-6-5-7-8-35-35-6-5-7-8-26-26-7-6-7-8-50-50-8-7v-2l-3-1-6-7-5-4v14l2 24v8l-2-3-3-8-1-7-2-7-2-19h-2l-6-9-6-26-4-24v-50l1-12 20 4 100 22 54 12 2 2-1 4-7 3-28 6-73 17-36 8-7 1v27l1 3 4 2 191 191 5 7-5 6-20 20-8 7-16 17-23 23-5 4-6 7h100l-5 9-8 11-5 8h-2l-2 6h-2l-2 5-9 13-5 6-2 4h-2l-2 4-4 7h-2l-2 6-3 3-2 5 6 11 8 11 13 19 7 9 13 19 9 13v4l-134 1-135-1-5 3-43 43-7 8-60 60-8 7-6 7-5 5h-4l-113-113-8-7-8-8-4-5-14 1h-80l-174-1-3-2 4-8 12-16 13-19 12-17 11-16 4-5-1-7-11-16-12-17-3-4v-2h-2l-7-11-4-4-5-9-11-15-2-4 1-1h88l11 1-7-8-48-48v-2l-4-2-24-24-1-3 3-1v-2l51-51 7-8 8-7 14-14 7-8 9-9 8-7 10-10 7-8 17-16 12-12 7-8 17-16 16-17 10-10 1-3 2-20-19-4-74-17-47-11-13-4v-4l18-5 48-11 72-16 55-12 61-13 39-9z" fill="#B14231"/>
<path transform="translate(854,121)" d="m0 0 2 1v2h4v2l4 2 1 1v63l5 28 5 22 4 6 1 3h2l2 7 2 18 1 1 2 11 2 4-2-29v-15l8 6 5 6 7 6 57 57v2l3 1 5 6 8 7 23 23 5 6 3 2v2l4 2 40 40v2l4 2v2l4 2 9 9 4 3v2l3 1-1 3-8 7-10 9-7 8-24 24-6 5-1 2h-2l-2 4-18 18-6 5-2-1 1-11h-592v11h-5l-11-12-70-70 2-4 11-11 8-7 21-21 7-8 78-78 8-7 12-12 7-8 16-16h2l1-3 5-5 13-14 3-1-2 47-3 52 26 5 24 3 47 4 39 2 64 1 50-1 40-2 57-5h9v-46l1-48 4-8v-8l-6-25-4-21-1-9v-25l1-31h-4z" fill="#FCFCFD"/>
<path transform="translate(696,95)" d="m0 0h8l41 9 7 2 13 2 87 19 5 2v56l3 20 7 32 1 3v8l-4 8-2 94-52 5-29 2-25 1-53 1-61-1-53-3-43-4-30-5-10-3v-17l3-54 2-42 2-20-19-4-74-17-47-11-13-4v-4l18-5 48-11 72-16 55-12 61-13 39-9z" fill="#29313A"/>
<path transform="translate(764,677)" d="m0 0h74l1 3-17 17h-2v2l-8 7-24 24-12 13-12 11-25 25-7 8-17 16-16 16-4-1-7-8-32-32-7-6-7-8-71-71-8-7-6-5v-2h-5v-1z" fill="#FDFDFE"/>
<path transform="translate(865,130)" d="m0 0 20 4 100 22 54 12 2 2-1 4-7 3-28 6-73 17-36 8-7 1v29l1 5v20l2 24v8l-2-3-3-8-1-7-2-7-2-19h-2l-6-9-6-26-4-24v-50z" fill="#09080C"/>
<path transform="translate(700,95)" d="m0 0 9 1 36 8 7 2 13 2 87 19 5 2v56l3 20 7 32 1 3v8l-4 8-2 91-5-1 1-8 2-4-1-7-1-6 1-20-1-8-1-9v-18l4-4-1-4-3-4 1-11 1-5-4-6-11-8-17-9-20-8-9-3-3-2-7-2-9-3-8-4-5-1-2-7h-5l-4-2-8-1-2-1-9-1v-2l-7-1-2-1v-2h-3l-1-2-6 1-7-7v-6l27-1 1 1 10 1h3l22 2 8 1 4-1 19-1v-2l-2-1 4-12 3-3-3-3v-2l-6-2-2-3 1-4-4-4v-2l-8 1-9-4-6-2v-1l8 1v-2l-9-1-2-1v2l-5-1-2 1-3-2-2-1-3-2-11-1-5-2-8-2-16-5-1-3-9-1-5-1z" fill="#08070A"/>
<path transform="translate(854,121)" d="m0 0 2 1v2h4v2l4 2 1 1v63l5 28 5 22 4 6 1 3h2l2 7 2 18 1 1 2 11 3 7 3 16 4 16 2 7 4 15 1 10-6 2-12 1h-24l-3-2 2-104 4-8v-8l-6-25-4-21-1-9v-25l1-31h-4z" fill="#E19347"/>
<path transform="translate(656,544)" d="m0 0h28l10 3 7 9 1 6v61l-3 10-4 5-8 3-28 1-3-2z" fill="#FDFDFE"/>
<path transform="translate(649,891)" d="m0 0h24l15 2 9 4 6 5 6 12 1 4v19l-3 10-6 8-9 6-7 2-8 1h-28l-1-1v-71z" fill="#0B0B0F"/>
<path transform="translate(510,233)" d="m0 0h1v11l-8 7-7 8-4 5-8 7-18 18-7 8-13 13-8 7-77 77-7 8-22 22-8 7-6 6 2 4 76 76 2 3 5 1v-11h572v1h-571l1 20-3 1-2-1v-2l-4-2-5-2-3-5-52-52v-2l-4-2-24-24-1-3 3-1v-2l51-51 7-8 8-7 14-14 7-8 9-9 8-7 10-10 7-8 17-16 12-12 7-8 17-16 16-17 7-7z" fill="#EEAA30"/>
<path transform="translate(543,544)" d="m0 0h29l8 2 5 6 3 8v22l-6 9 5 9 2 15v27h-10l-4-2-1-2v-21l-1-12-1-4h-13l-1 40-1 1h-12l-2-3z" fill="#FDFDFE"/>
<path transform="translate(221,891)" d="m0 0h17l3 5 15 44 1 4h2l3-11 10-30 5-12h18v72l-1 1h-12l-1-1-1-44-9 24-7 20-1 1h-10l-3-3-14-39-1-5h-2l1 9-1 37-1 1h-10l-2-1v-71z" fill="#0C0B0F"/>
<path transform="translate(546,676)" d="m0 0 218 1v1l-207 1 12 12 8 7 72 72 5 6 8 7 33 33 1 2 5-1 7-8 16-16 8-7 15-16 25-25 8-7 10-11h2l2-4 24-24h2v-2l8-7 10-10v-3h9l-2 4-4 4-6 9v2l-5 3-43 43-7 8-60 60-8 7-6 7-5 5h-4l-113-113-8-7-8-8-4-5-2-2-6-7-3-5-7-5z" fill="#F9C03F"/>
<path transform="translate(612,544)" d="m0 0h19l3 4 10 67 4 23-1 4h-12l-3-3-2-15-18-1-1 15-2 4h-11l-1-1v-9l2-11 1-9 2-8 3-22 5-29z" fill="#FDFDFE"/>
<path transform="translate(782,544)" d="m0 0h19l2 3 12 78 2 11v5l-5 1-9-1-1-3-2-15-18 1-2 17-1 1-12-1-1-1 1-13 2-12 2-10 3-19 3-20 2-10 1-9z" fill="#FDFDFE"/>
<path transform="translate(507,542)" d="m0 0 11 1 6 3 6 7 2 5 1 6v10l-5 2-9-1-1-1v-15l-9-1-6 1v69h14l1-27h-5l-2-2v-12l1-1h20l1 3v32l-2 10-6 8-8 4h-13l-8-3-7-8-2-6v-65l1-4 3-6 7-6z" fill="#FDFDFE"/>
<path transform="translate(888,236)" d="m0 0 2 1v2l4 2 191 191 5 7-5 6-20 20-8 7-16 17-23 23-5 4-6 7-1 2-5 2-2 1 1-4h-6v-3l4-1 7-8 8-7 8-8 1-2h2l2-4 13-12 21-21 7-8 11-10h2v-3l-8-7-9-9-6-5-7-8-35-35-6-5-7-8-26-26-7-6-7-8-50-50-8-7v-2l-3-1-6-7-6-5v-8z" fill="#ECA734"/>
<path transform="translate(1022,891)" d="m0 0h27l13 2 6 4 4 6 1 4v8l-3 7-8 6 2 4 4 6 8 23v3h-13l-3-4-8-22-1-3-15-1v12l-1 17-2 1h-11l-1-2v-70z" fill="#0B0B0E"/>
<path transform="translate(698,690)" d="m0 0 4 2 8 19 4 4 12 2 11 1 3 2-1 4-6 4-7 7-5 4h-2l2 2 4 22v5l-6-1-12-6-5-4-4-1-8 4-3 1-1 2-8 4h-4v-8l2-9 2-11h-2l-17-17v-3l10-1 4 1v-2h6l8-3 5-13z" fill="#E29547"/>
<path transform="translate(713,544)" d="m0 0h14l1 1v74l2 8 4 2h5l4-4v-71l1-10h12l2 1 1 6-1 74-3 9-5 5-4 3-3 1h-15l-9-5-5-8-1-11v-68l-1-6z" fill="#FDFDFE"/>
<path transform="translate(789,891)" d="m0 0h13l5 3 10 17 12 19 5 7 1-45 1-1h13v71l-1 2h-12l-5-5-28-44-1 49h-13l-1-1v-71z" fill="#0B0A0E"/>
<path transform="translate(314,891)" d="m0 0h13l4 2 16 26 11 17 1 1 1-45 1-1h12l1 1v71l-1 1h-12l-5-5-9-14-13-21-6-9-1 48-1 1h-12l-1-1v-71z" fill="#0B0A0E"/>
<path transform="translate(969,891)" d="m0 0h15l3 1 15 44 9 26v2h-15l-5-15v-2l-28 1-4 14-2 2h-14l4-13 18-53 2-6z" fill="#0A0A0D"/>
<path transform="translate(33,891)" d="m0 0h14l3 1 15 44 9 27-1 1h-14l-5-15-1-1-27-1-3 11-2 6h-14l1-7 15-44 7-21z" fill="#0A0A0D"/>
<path transform="translate(871,544)" d="m0 0h39l2 1v12l-1 1-25 1v24l19 1 1 2v11l-4 1h-16l-1 30h25l2 2v10l-1 2h-39l-2-1v-96z" fill="#FDFDFE"/>
<path transform="translate(1161,891)" d="m0 0h11l3 1v27h31l1-27 1-1h13l1 2-1 70-1 1h-13l-1-32-31-1v15l-1 18h-13l-1-1v-71z" fill="#0A0A0D"/>
<path transform="translate(144,891)" d="m0 0h12l1 1 1 49 3 7 5 3h12l6-4 2-4 2-52h13l1 1v45l-2 13-4 6-8 6-9 3h-13l-10-3-6-4-4-5-3-9v-52z" fill="#0B0B0E"/>
<path transform="translate(573,891)" d="m0 0h9l4 1 1 50 3 6 5 3h11l5-2 3-3 2-11 1-43 1-1h12l1 1v45l-2 13-4 6-7 6-10 3h-13l-10-3-6-4-5-7-2-8v-51z" fill="#0B0A0E"/>
<path transform="translate(1343,891)" d="m0 0h30l18 1-1 11-5 1h-28v15l26 1 3 1v11h-29v19l34 1v12h-49v-72z" fill="#0B0B0E"/>
<path transform="translate(729,891)" d="m0 0h32l13 1v11l-1 1h-32v15l20 1 9 1v11h-29v19l34 1v11l-1 1h-48v-72z" fill="#0B0A0E"/>
<path transform="translate(469,890)" d="m0 0 13 1 12 5 1 6-5 7-5-2-8-3h-10l-6 2v7l3 4 20 5 8 4 5 5 2 6v10l-3 8-8 7-9 3h-12l-13-4-6-4-3-3v-5l6-7 4 2 6 5 5 2h12l4-2 1-2v-8l-4-3-19-5-8-5-4-5-2-5v-9l4-8 7-6 5-2z" fill="#0A0A0D"/>
<path transform="translate(985,654)" d="m0 0 5 1 3 4-2 2 1 8-2 7-13 3-1 1-15 2-7 2-11 1-12 2-19 3-28 2-38 1-8 1 2-5h2l2-5 8-7 54-2 17-1 22-1 16-3 9-2 5-5 8-1-2-5 4-1z" fill="#7D2719"/>
<path transform="translate(1115,890)" d="m0 0h8l9 2 10 6 5 6-1 4-7 5-4-1-4-5-7-3h-10l-8 5-4 8-1 5v11l2 9 4 6 6 3h12l7-4 5-8 5 1 5 3 1 4-3 6-5 5-7 5-6 2h-15l-12-5-7-6-6-12-1-4v-21l5-13 6-7 12-6z" fill="#0A0A0D"/>
<path transform="translate(1266,891)" d="m0 0h13l2 1 17 52 2-3 14-43 3-7h14l-3 12-18 53-3 7-1 1h-16l-4-9-14-41-6-19z" fill="#0B0A0E"/>
<path transform="translate(816,544)" d="m0 0h45l1 1v12l-2 1-13 1-1 82-1 1h-10l-3-1-1-2v-20l-1-60-13-1-2-2v-10z" fill="#FDFDFE"/>
<path transform="translate(697,56)" d="m0 0 4 2 38 38 6 8-9-1-32-7h-8l-37 8h-6l4-6 5-6 34-34z" fill="#FDFDFE"/>
<path transform="translate(418,670)" d="m0 0h13l40 3 22 2 25 1h25l8 4 5 8 3 5-4 1-44-1-20-1-15-2-9-3-8-3-23-3-12-2-11-5 1-2h4z" fill="#7D2719"/>
<path transform="translate(510,233)" d="m0 0h1v11l-8 7-7 8-4 5-8 7-18 18-7 8-13 13-8 7-77 77-7 8-6 5-2-1 2-5 1-4 3-4 6-7 10-11 8-7 14-14 7-8 9-9 8-7 10-10 7-8 17-16 12-12 7-8 17-16 16-17 7-7z" fill="#FBC23F"/>
<path transform="translate(532,891)" d="m0 0h17l12 1v11l-1 1h-20v59l-1 1h-13l-1-10v-50h-18l-2-1v-11z" fill="#0B0B0E"/>
<path transform="translate(861,891)" d="m0 0h30l25 1v11l-2 1h-19v59l-1 1h-13l-1-59-18-1-2-1v-11z" fill="#0A0A0D"/>
<path transform="translate(87,891)" d="m0 0h12l1 5v56h32v12h-46l-1-1v-71z" fill="#0B0B0F"/>
<path transform="translate(663,904)" d="m0 0h17l7 2 6 7 2 5v20l-4 8-6 4-12 2h-10l-1-4z" fill="#FDFDFE"/>
<path transform="translate(698,690)" d="m0 0 4 2 8 19 4 4 12 2 11 1 3 2-1 4-6 4-7 7-5 4h-2v-2l2-2-5 1-4-2-1-4-9-2-3-2-10-2-6-1-2 9-1 5-7-1-14-14v-3l10-1 4 1v-2h6l8-3 5-13z" fill="#FBC240"/>
<path transform="translate(1048,402)" d="m0 0 7 5 4 4v2h4l4 1 18 18 5 7-5 6-20 20-8 7-16 17-23 23-5 4-6 7-1 2-5 2-2 1 1-4h-6v-3l4-1 7-8 8-7 8-8 1-2h2l2-4 13-12 21-21 7-8 11-10h2v-3l-8-7-9-9-6-5-7-8-4-5z" fill="#E39847"/>
<path transform="translate(909,429)" d="m0 0h11l9 3 4 5 3 8v11l-5 10-6 5-8 1 1-5v-36h-7l-1 2v33l2 6h-8l-8-7-4-8v-12l5-10 8-5z" fill="#1F3443"/>
<path transform="translate(451,429)" d="m0 0h9l10 3 4 5 2 5v18l-4 6-6 5-8 1-1-2 3-6-1-32h-8l-1 10v23l2 7-9-1-7-6-3-7v-14l4-8 5-4z" fill="#283039"/>
<path transform="translate(699,47)" d="m0 0 1 2h2l7 8 16 15 22 22 9 11 3 2h-7l-7-2-9-11-37-37-2-1-2 4-27 27-4 5h-2l-2 4-6 7-1 2-12 3-3-1 3-1 1-5 5-4 7-8 10-9 29-29z" fill="#EFAD33"/>
<path transform="translate(674,558)" d="m0 0 11 1 2 5 1 4v52l-3 7-1 1h-13l-1-66 1-3z" fill="#B44832"/>
<path transform="translate(1241,891)" d="m0 0h14v72l-2 1h-10l-3-1v-71z" fill="#0D0D11"/>
<path transform="translate(394,891)" d="m0 0h13l1 1-1 71-1 1h-12l-1-1v-71z" fill="#0B0B0F"/>
<path transform="translate(400,410)" d="m0 0h10l15 2 1 15h-3l-6-10-5-4-9-1-6 4-2 4-1 6v28l3 9 5 7 2 2h-10l-8-4-7-8-3-9-1-12 2-10 5-10 7-6 4-2z" fill="#28313B"/>
<path transform="translate(854,121)" d="m0 0 2 1v2h4v2l4 2 1 1v63l5 28 5 22 1 4-4-2-1-8h-1v11l-4 8-1 12 2 1-2 19-1 19-1 35h-1v-37l1-48 4-8v-8l-6-25-4-21-1-9v-25l1-31h-4z" fill="#D58541"/>
<path transform="translate(759,406)" d="m0 0h16l1 3v63h-13l-3-1-1-59-1-5z" fill="#283039"/>
<path transform="translate(889,335)" d="m0 0h7l4 1v3h2l3 10 1 10-6 2-12 1h-24l-3-2v-10h2l1-8 2-1 11-1 1 8 1-3h2l2-5z" fill="#FBC240"/>
<path transform="translate(685,415)" d="m0 0h3l1 18v37l7-2v4h-18l-5-8-2-35 1-10 11-3z" fill="#273039"/>
<path transform="translate(549,429)" d="m0 0h10l7 2 5 6 1 8-2 7-3 3-3 2-22 1-5-6-1-3v-10l4-6 5-3z" fill="#28313A"/>
<path transform="translate(846,415)" d="m0 0 3 1 1 15v37l6 1-1 3h-17l-4-8-1-33h-3l1-2 2 1v-11l11-3z" fill="#242F3A"/>
<path transform="translate(838,677)" d="m0 0h9l-2 4-4 4-6 9v2l-5 3-43 43-7 8h-2v-2l-2-1v-5l7-7 7-8h2l2-4 24-24h2v-2l8-7 10-10z" fill="#EFAC31"/>
<path transform="translate(483,430)" d="m0 0h14l5 1-1 35v5l-1 1h-15l-1-1v-30z" fill="#1F3444"/>
<path transform="translate(802,430)" d="m0 0h11l6 2 2 6 2 29 2 1v4h-15l-5-5v-19l-2-16z" fill="#29313A"/>
<path transform="translate(539,461)" d="m0 0 29 2 8 4 2 5v8l-3 6-5 4-5 2h-7v-1l7-2 3-6-1-4-2-1-22-1-4-1-3-7 1-7z" fill="#1F3342"/>
<path transform="translate(966,429)" d="m0 0h9l8 2 3 8 1 32-1 1h-16l-1-39-5-1z" fill="#152A3C"/>
<path transform="translate(508,429)" d="m0 0 12 1 6 5 1 4 1 33h-17l-1-40h-2z" fill="#203443"/>
<path transform="translate(636,429)" d="m0 0h8l12 2 3 5 1 7 1 21 3 3 1 4-1 1h-13l-5-3-2-4-1-33-7-1z" fill="#28323C"/>
<path transform="translate(731,430)" d="m0 0h16l1 41-2 1-13-1-2-3z" fill="#152A3C"/>
<path transform="translate(704,430)" d="m0 0h14l4 1v28l1 7 4 4-1 2h-14l-6-9-1-31z" fill="#1F3444"/>
<path transform="translate(403,510)" d="m0 0h572v1h-571l1 20-3 1-2-1v-2l-4-2-5-2-1-4 4 2 4 1 3-1 1-2z" fill="#E29547"/>
<path transform="translate(943,430)" d="m0 0h13l3 1 1 3v38h-17z" fill="#1E3444"/>
<path transform="translate(583,430)" d="m0 0h15l2 1v37l1 3-1 1h-16z" fill="#152A3C"/>
<path transform="translate(1e3 430)" d="m0 0h15l8 1-4 3h3v7l-8-8-2-1h-10l-3 2 1 5 18 6 5 4 1 2v13l-5 6-5 2h-3v-2l8-4-2-1-1-3-16-5-7-6-1-2v-11l4-6z" fill="#203443"/>
<path transform="translate(868,430)" d="m0 0h16l1 42h-16z" fill="#152A3C"/>
<path transform="translate(812,127)" d="m0 0 7 1 16 3 1 3 11 1 1 2 4 1 1 3-5 3h4l-1 5h-3l-2 7 6 12-2 5h-11l-3-2h-13l-20-2-4-2h11l10 1h18l5 1-1-7-1-12-5-1-3-9-2-5-6-2-6-1v-2l-7-1z" fill="#29313A"/>
<path transform="translate(907,431)" d="m0 0h2l1 35 2 6h-8l-8-7-3-5v-14l2-2 2-6 4-4 6 1z" fill="#1E3344"/>
<path transform="translate(863,147)" d="m0 0h1l1 45 5 28 5 22 1 4-4-2-1-8h-1v11l-4 8-1 12 2 1-2 19-1 19-1 35h-1v-37l1-48 4-8v-8l-6-25v-5l2 4 2 10h2l-3-13-1-5-2-21v-15z" fill="#9F3729"/>
<path transform="translate(1036,903)" d="m0 0h15l6 2 2 4v8l-4 4-2 1h-17l-1-5z" fill="#FDFDFE"/>
<path transform="translate(558,559)" d="m0 0h14l2 8v10l-2 7-4 1h-9l-1-1z" fill="#B64A33"/>
<path transform="translate(789,563)" d="m0 0 2 2 3 14 3 19 1 9v3h-13l-1-4 4-36z" fill="#BA5135"/>
<path transform="translate(620,565)" d="m0 0h2l4 22 2 16v7h-12l-2-4 1-3 2-17z" fill="#B95034"/>
<path transform="translate(843,429)" d="m0 0h2l4 6 1 33 6 1-1 3h-17l-4-8v-6l1-7 2-1 2 8 1 2h3z" fill="#222932"/>
<path transform="translate(344,466)" d="m0 0 7 6 45 45 2 3 4 1-1 3-5 1-9-6-41-41h3l27 27 3 2-4-6v-2l-31-31z" fill="#FBC33F"/>
<path transform="translate(954,431)" d="m0 0 4 4-3 10-1 11 2 3h-2l1 7-3 1-2 3h-6v-7l2-9-1-4v-8l4-6v-4z" fill="#152A3B"/>
<path transform="translate(654,433)" d="m0 0h4l1 14v14l-1 5 2 1-6-1-3-6v2h-2l-3 3-1-3v-17l2-2v2l6-2 1-6v-3z" fill="#1F3444"/>
<path transform="translate(583,430)" d="m0 0h15l2 1v37l1 3-1 1h-16l1-6 2 2 4 2v-3l4-2-3-3 2-6 1-5-3-4 1-3 3-1 2 1v-9l-3-2h-6l1 2-3 2v16l-2 11h-1z" fill="#26323E"/>
<path transform="translate(463,432)" d="m0 0 8 1 4 6 1 3v18l-4 6-5 2-3 1-3-2 2-5 1-2h2v-3h2v-14l-2-1v-3l-3-1z" fill="#172B3B"/>
<path transform="translate(674,423)" d="m0 0 2 3h4v2l3 1 1 12-1 17-3 4-4-2v5l-2-1v-31l-1-3z" fill="#152A3C"/>
<path transform="translate(636,451)" d="m0 0h3v15l1 6h-13l-5-7 1-10 4-2z" fill="#29313A"/>
<path transform="translate(673,717)" d="m0 0h14l-3 2-3 1v2l2 1-2 9-1 5-7-1-14-14v-3l10-1 4 1z" fill="#EDA92D"/>
<path transform="translate(976,907)" d="m0 0 3 3 7 21v4h-19l3-10z" fill="#FDFDFE"/>
<path transform="translate(671,73)" d="m0 0 1 3-3 3-2 10-3 3h-2l-2 4-6 7-1 2-12 3-3-1 3-1 1-5 5-4 7-8 10-9z" fill="#F7BC42"/>
<path transform="translate(797,451)" d="m0 0h4l-1 4-1 9 3 5v3h-14l-4-6-1-9 3-3z" fill="#28313B"/>
<path transform="translate(546,676)" d="m0 0 218 1v1h-212v2l5 2 7 8 2 4h2v4l-4-2-2-2-6-7-3-5-7-5z" fill="#E29548"/>
<path transform="translate(39,907)" d="m0 0 3 3 7 22v3h-19l3-10z" fill="#FDFDFE"/>
<path transform="translate(767,436)" d="m0 0h2v3h-2l2 2 1 7 4 1 1 1v13l-2 1-2 6 2 1h-8l1-2 2 1-3-4-3-12 1-12 2-5z" fill="#152A3C"/>
<path transform="translate(1048,402)" d="m0 0 7 5 4 4v2h4l4 1 18 18 1 5-3-1-1 2-4-2-15-15-6-5-7-8-4-5z" fill="#E19445"/>
<path transform="translate(442,438)" d="m0 0 2 3v18l-2 9h-3l-4-5-2-5v-14l2-5z" fill="#203443"/>
<path transform="translate(459,430)" d="m0 0 9 1 2 2-2 1-5-2 1 6 2 1v3l3 1v12l-1 2h-2v3h-2l-2 5-1 2 5 1 3-2 2 1-5 4-8 1-1-2 3-6z" fill="#203443"/>
<path transform="translate(978,430)" d="m0 0 5 1 3 8 1 32-1 1h-16l1-4 4 1 3 1 1-13-1-2 1-9 4-6v-6l-4-1z" fill="#203443"/>
<path transform="translate(753,349)" d="m0 0 18 1 10 1h11l6 1v2l-10 1-7 2h-38v-1h19v-4l-2 2h-10l-9-1 3-2z" fill="#1F3444"/>
<path transform="translate(868,430)" d="m0 0h16l1 42h-16zm11 2-6 2-3-1v25l2 10v2l4-1v-3h5l2-7v-25l-1-2z" fill="#26333E"/>
<path transform="translate(731,430)" d="m0 0h16l1 41h-3v-14h-2l2-7-3-1v-8l1-4h2v-6l-7 3-3 1-1 7-1 1v24l4 2 1 2h-5l-2-3z" fill="#273039"/>
<path transform="translate(385,419)" d="m0 0 1 2h2l1 7 3 1-1 15-2 3v11l2 5h2l-1 3-6-1v-2l-4-2-1-4v-9l2 3 4 2-1-7 1-12-2-5-4 1 1-7z" fill="#152A3C"/>
<path transform="translate(538,470)" d="m0 0 2 2 1-2h22l6 4v2l3 1-2 1 1 3-3 10-3 1h-7v-1l7-2 3-6-1-4-2-1-22-1-4-1-2-5z" fill="#252B34"/>
<path transform="translate(808,446)" d="m0 0 3 3v3l1 5 4 2 5 9-1 3h-12l-3-4v-18z" fill="#203443"/>
<path transform="translate(872,409)" d="m0 0h10l2 1v12l-1 1h-13l-2-7 1-5z" fill="#23313D"/>
<path transform="translate(704,430)" d="m0 0h14l4 1v35l-4-1-2-5-1-6v-9l4-9h2v-3h-11l-1 2-1-1-2 2z" fill="#29323B"/>
<path transform="translate(550,431)" d="m0 0h7l1 1v22l-1 2h-6l-1-1-1-22z" fill="#FDFDFE"/>
<path transform="translate(558,435)" d="m0 0h1l1 6h1l1 9 3-1 3-4h-2l1-6-2-1 1-3 4 1 2 5-1 10-4 4-3 2-18 1 2-1v-2l9 1z" fill="#29313A"/>
<path transform="translate(966,429)" d="m0 0h9l2 1-1 2 1 1v3h-2v22l-4 8h-1l-1-33-5-1z" fill="#29323B"/>
<path transform="translate(391,436)" d="m0 0h1l2 18 3 9 5 7 2 2h-10l-5-2-2-6 5 1 1-2h-2l-1-4-2-1v-11l2-3z" fill="#203443"/>
<path transform="translate(653,781)" d="m0 0h4l7 6 28 28-1 2-5-2-9-8-7-8-14-14-3-2z" fill="#EFAD2F"/>
<path transform="translate(607,429)" d="m0 0 10 1 2 1 1 10-1 4-2 1h-7l-3-1v-8l3-1 1-3-5-2z" fill="#29323B"/>
<path transform="translate(793,430)" d="m0 0 3 1 3 7v6l-5 3h-5l-3-3-1-5 3-6z" fill="#28323C"/>
<path transform="translate(632,430)" d="m0 0h3l3 8v6l-5 3-7-2-1-1v-8l5-5z" fill="#27313B"/>
<path transform="translate(693,706)" d="m0 0h6v2h7l2 5 3 4 11 3-1 2-8-2-5 1-4-3v-5l-7 2h-3l-4-1v2l-2-1 4-8z" fill="#E29547"/>
<path transform="translate(865,130)" d="m0 0 20 4-3 3-3-1 1-2-5 2-8-2v25l2 4 2 3v5h-3l-1 3-3-3v-29z" fill="#29313A"/>
<path transform="translate(943,430)" d="m0 0h13l3 1 1 3v10h-1l-1-10-4-2h-5v2l4 1-5 3-2 4v8l1 7-2 6v6l5 1h10v2h-17z" fill="#26323D"/>
<path transform="translate(1031,381)" d="m0 0 4 1 30 30-2 1-1 2-7-6-5-5-4-1 1-7-4-1-5-6-7-6z" fill="#EBA63A"/>
<path transform="translate(557,430)" d="m0 0h7l4 3-2 5 1 5-1 2h2l-2 6-5-1-1-6h-1z" fill="#1F3443"/>
<path transform="translate(535,479)" d="m0 0 7 1 1 1-1 7 6 2 2 1v2h-8l-5-2-5-5v-5z" fill="#29323B"/>
<path transform="translate(383,428)" d="m0 0 3 1 2 6-1 18-3 1-1-1h-1l-1-5v-18z" fill="#1F3545"/>
<path transform="translate(802,430)" d="m0 0h11l1 8v4l-2 3-6 1-3-14z" fill="#203443"/>
<path transform="translate(514,209)" d="m0 0 3 2 3 5v10l-3 2-2 6-3 1v-17l1-1z" fill="#0C090C"/>
<path transform="translate(843,429)" d="m0 0h2l4 6-1 24h-4z" fill="#293039"/>
<path transform="translate(839,678)" d="m0 0 1 4-5 4-13 13-3 4h-2l-1 6-6 2-9 9-3-1 20-20h2v-2l8-7 10-10z" fill="#FBC23F"/>
<path transform="translate(425,453)" d="m0 0h1v17l-16 1 9-9z" fill="#2A323B"/>
<path transform="translate(762,407)" d="m0 0h1v13l3 1 1 9 1 2h-2v8h-2l-1 10h-1l-1-30-1-11z" fill="#1F3545"/>
<path transform="translate(595,443)" d="m0 0 3 1v26h-7v-3l4-2-3-3 2-6 1-5-3-4 1-3z" fill="#1F3545"/>
<path transform="translate(761,450)" d="m0 0 2 1 1 9 3 7 1 3h3l2-8h1l1-6h1v16h-13l-2-1z" fill="#1F3545"/>
<path transform="translate(843,431)" d="m0 0h1v30l-5-1-1-2v-19h1l1 6 1-4h2z" fill="#152A3C"/>
<path transform="translate(658,436)" d="m0 0h1l1 7 1 21 3 3 1 4-1 1h-13l-3-2 4-1 1-3h5z" fill="#272F38"/>
<path transform="translate(351,393)" d="m0 0 2 1-14 15-25 25-1-3z" fill="#EEAB38"/>
<path transform="translate(745,431)" d="m0 0 2 1 1 39h-3v-14h-2l2-7-3-1v-8l1-4h2z" fill="#213442"/>
<path transform="translate(483,430)" d="m0 0h14l5 1-1 35v5l-2-3-1-6v-14l-1-3 3-1v-10l-4-1v-2l-10 1-1 9h-1z" fill="#29323B"/>
<path transform="translate(759,406)" d="m0 0 4 1-2 3 1 12v47l-2 2-1-59-1-5z" fill="#2A323B"/>
<path transform="translate(513,430)" d="m0 0h7l3 2-1 2-2 2 5 3 1 6h-2v-2h-2v-2l-3 1v-2l-6-1-2-7z" fill="#152A3C"/>
<path transform="translate(540,435)" d="m0 0h2l1 11v3l2 5-7-1-2-4v-10z" fill="#1E3242"/>
<path transform="translate(919,435)" d="m0 0h1l1 10 1 1v19l-2 4 6-1 1 2-6 2h-4l1-5z" fill="#29323B"/>
<path transform="translate(446,445)" d="m0 0 3 3 1 17 2 7-9-1-1-2h3v-12h2l-2-10z" fill="#29323B"/>
<path transform="translate(772,118)" d="m0 0 19 1 18 6v1l-8-1-6-1-8 1-9-4-6-2z" fill="#0A0A0D"/>
<path transform="translate(438,435)" d="m0 0h5l2 5 1 14 2 1-1 2h-2l1 9-1 3-4-1 2-9v-18l-1-2h-5l-1 2 1-5z" fill="#152A3C"/>
<path transform="translate(1011,449)" d="m0 0 7 2 5-1 3 1v9h-5v-2l-5-2-5-5z" fill="#152A3C"/>
<path transform="translate(882,432)" d="m0 0h2v38h-9v-5l6 1 1-7z" fill="#223341"/>
<path transform="translate(571,472)" d="m0 0h5v13l-6 5-3-1 4-12-2-1z" fill="#1E3444"/>
<path transform="translate(908,436)" d="m0 0h1v30h-1l-5-20 1-2h2l1-7z" fill="#2A323B"/>
<path transform="translate(673,717)" d="m0 0h14l-3 2-20 3 3 5 7 6 1 3-4-2-12-12v-3l10-1 4 1z" fill="#F1B143"/>
<path transform="translate(909,429)" d="m0 0h11l-2 4v-2h-7l-2 2v-2h-2v4h-7l-3 4-2 6-1 1-1 11h-1v-12l5-10 8-5z" fill="#1E2E3C"/>
<path transform="translate(646,433)" d="m0 0 4 1h2 3v3l-2 6-6 2h-2v-10z" fill="#152A3C"/>
<path transform="translate(846,415)" d="m0 0 3 1 1 15-2 4-4-6v-13z" fill="#0E0F14"/>
<path transform="translate(681,753)" d="m0 0 7 1 2 1-1 4-3 4-3 2h-5l2-7z" fill="#EDA830"/>
<path transform="translate(1e3 430)" d="m0 0h15l8 1-4 3h3v7l-8-8-2-1h-10l-3 2-1 4h-3l-1-4z" fill="#29323B"/>
<path transform="translate(569,419)" d="m0 0h8l1 1v9h-6l-2-3z" fill="#1B1F26"/>
<path transform="translate(710,752)" d="m0 0 6 1 3 2-1 7-5-1-5-5v-3z" fill="#EEAA2D"/>
<path transform="translate(391,436)" d="m0 0h1l1 18v9h-2l-1-4-2-1v-11l2-3z" fill="#26323D"/>
<path transform="translate(865,130)" d="m0 0 20 4-3 3-3-1 1-2-5 2-8-2-1 14h-2z" fill="#29323B"/>
<path transform="translate(599,441)" d="m0 0 1 4v23l1 3-1 1h-16l1-6 2 2v1l11 1v-28z" fill="#29323B"/>
<path transform="translate(838,677)" d="m0 0h9l-2 4-4 4-6 9v2l-5 1 2-5 6-7 1-6z" fill="#E29547"/>
<path transform="translate(380,371)" d="m0 0h2l-2 4-15 15-1-3h2l1-5 2-1 3-5z" fill="#EFAD33"/>
<path transform="translate(607,437)" d="m0 0 2 1-1 6h2l-1-4 3-2h4l3 3v4l-2 1h-7l-3-1z" fill="#262D35"/>
<path transform="translate(417,412)" d="m0 0h2v2h2l4 5 1 8h-3l-6-10-2-4z" fill="#171A1F"/>
<path transform="translate(837,435)" d="m0 0h1v21h-1l-1-5-1 7h-1v-16z" fill="#29323B"/>
<path transform="translate(1031,381)" d="m0 0 4 1 16 16-1 3-3-2v-3l-4-1-5-6-7-6z" fill="#E9A145"/>
<path transform="translate(1e3 439)" d="m0 0 16 5 6 3 2 4h-3l-3-4-12-2-7-4z" fill="#29323B"/>
<path transform="translate(636,429)" d="m0 0h8l12 2 1 2-5 2h-3-3l-2 1-1-4-7-1z" fill="#27323D"/>
<path transform="translate(1076,426)" d="m0 0 7 6 3 2-1 3-2-1-1 2-4-2-5-5v-4l2 1v2l4 2v-1l-3-3z" fill="#BA5235"/>
<path transform="translate(781,351)" d="m0 0h11l6 1v2l-10 1-6 1-4-4z" fill="#1F3444"/>
<path transform="translate(770,353)" d="m0 0h9l3 3-1 1h-18l1-3z" fill="#29323B"/>
<path transform="translate(542,462)" d="m0 0 2 1v2l4 2v2l3 2h-7l-3-1-1 3-3-2v-3l5-1z" fill="#152A3C"/>
<path transform="translate(1e3 353)" d="m0 0 4 1 17 17-4 1-3-4-4-4-2-4h-3l-3-4z" fill="#EBA545"/>
<path transform="translate(775,456)" d="m0 0h1v16h-13v-1l8-1 2-8h1z" fill="#24323E"/>
<path transform="translate(556,683)" d="m0 0 7 6 3 3v2h2v4l-4-2-2-2-6-7z" fill="#EBA435"/>
<path transform="translate(613,432)" d="m0 0 3 2 2 2 1 3-6 1h-3v4h-2v-6z" fill="#1F3444"/>
<path transform="translate(841,431)" d="m0 0h2v10l-2 1v6l-2 1-1-14z" fill="#1E3444"/>
<path transform="translate(351,393)" d="m0 0 2 1-7 8-8 7-8 8-2-1z" fill="#F0AE43"/>
<path transform="translate(799,167)" d="m0 0h11l10 1h10v3l-16-1-15-2z" fill="#2A323B"/>
<path transform="translate(720,741)" d="m0 0h1l4 22v5h-4v-2h2l-3-16-1-8z" fill="#FCC440"/>
<path transform="translate(394,459)" d="m0 0 3 4 5 7 2 2h-10l-2-1v-2l4-1 1-2h-2z" fill="#29313A"/>
<path transform="translate(994,459)" d="m0 0 5 5 7 6v1l-7-1v-2h-5z" fill="#2A323B"/>
<path transform="translate(894,461)" d="m0 0h2l5 5 1 3h3l1-3v4h3l1-4 2 6h-8l-8-7z" fill="#25303B"/>
<path transform="translate(863,206)" d="m0 0 1 4 2 3 1 11h-2l-4-14v-3z" fill="#E29548"/>
<path transform="translate(533,480)" d="m0 0 6 1 1 4-3 2-5-1v-5z" fill="#0E0E12"/>
<path transform="translate(841,419)" d="m0 0h2v8l-3 3 3 1-5 4v-10z" fill="#152A3C"/>
<path transform="translate(785,119)" d="m0 0 9 1 15 5v1l-8-1-17-4z" fill="#293139"/>
<path transform="translate(521,433)" d="m0 0 4 1 2 5v14h-1l-1-14-4-1-2-3h2z" fill="#29323B"/>
<path transform="translate(569,476)" d="m0 0 3 1-2 1 1 3-3 10-3 1h-7v-1l7-2 3-6-1-4-2-2z" fill="#29323B"/>
<path transform="translate(460,464)" d="m0 0 1 3 5 1 3-2 2 1-5 4-8 1-1-2z" fill="#27323D"/>
<path transform="translate(882,461)" d="m0 0 2 3v6h-9v-5l6 1z" fill="#1F3545"/>
<path transform="translate(1020,462)" d="m0 0 6 2-2 4-4 3-6 1v-2l8-4-2-1z" fill="#2A323B"/>
<path transform="translate(651,459)" d="m0 0 2 4 1 3-2 3-4 1-1-6 2-3z" fill="#152A3C"/>
<path transform="translate(944,458)" d="m0 0h1v11l5 1h10v2h-17v-10z" fill="#2A323B"/>
<path transform="translate(731,451)" d="m0 0h2v16l4 2 1 2h-5l-2-3z" fill="#27323D"/>
<path transform="translate(864,255)" d="m0 0h1v12l2 1-2 19h-1z" fill="#B04031"/>
<path transform="translate(673,717)" d="m0 0h14l-3 2-14 2h-7l1-2h9z" fill="#E79E46"/>
<path transform="translate(864,352)" d="m0 0 7 1 5 1 3 2v2l-10-1-5-3z" fill="#E29548"/>
<path transform="translate(861,335)" d="m0 0h1v12l-5-1 1-8z" fill="#09090C"/>
<path transform="translate(551,681)" d="m0 0 3 1 9 12-4 2-4-8-4-6z" fill="#A93F31"/>
<path transform="translate(966,429)" d="m0 0h9l2 1-1 2h-4l-1 3-2-2-5-1z" fill="#27323D"/>
<path transform="translate(723,168)" d="m0 0h15l-4 4h-6l-6-2z" fill="#2A323B"/>
<path transform="translate(572,480)" d="m0 0 2 2v2l2 1-6 5-3-1 3-8z" fill="#243340"/>
<path transform="translate(1026,451)" d="m0 0h1v13l-6-1-4-3h3l1-2v2h5z" fill="#233340"/>
<path transform="translate(514,329)" d="m0 0h1v10l4 2-2 4-2-1v-3h-2l-1-7z" fill="#1F3545"/>
<path transform="translate(839,678)" d="m0 0 1 4-5 4-8 8-1 2h-2l2-4 12-12z" fill="#F3B647"/>
<path transform="translate(970,468)" d="m0 0 5 1 4 1 8-1-1 3h-16z" fill="#28313A"/>
<path transform="translate(521,235)" d="m0 0h2l-3 11-2 3-2-1 1-8h2v-2h2z" fill="#1F3545"/>
<path transform="translate(597,430)" d="m0 0 3 1v10l-2 1v-7l-3-2-10-1v-1z" fill="#243340"/>
<path transform="translate(750,101)" d="m0 0h3l3 4 3 2h-7l-4-2-1-3z" fill="#CF7E3A"/>
<path transform="translate(809,708)" d="m0 0h2l-2 4-8 8-3-1z" fill="#F5B742"/>
<path transform="translate(932,444)" d="m0 0h2l1 8-3 2-3-5z" fill="#152A3C"/>
<path transform="translate(672,422)" d="m0 0h2l-1 29h-1l-1-22z" fill="#28323C"/>
<path transform="translate(795,722)" d="m0 0 2 2-10 9-5 6-2-1 10-11h2l2-4z" fill="#F5B742"/>
<path transform="translate(620,565)" d="m0 0h2l1 10h-2l-2 4-1-3z" fill="#E39747"/>
<path transform="translate(722,466)" d="m0 0 4 2 1 3-1 1h-14v-1l9-1z" fill="#29323B"/>
<path transform="translate(975,324)" d="m0 0 4 2 9 9-4 1-1-4h-3l-2-4-3-2z" fill="#EBA545"/>
<path transform="translate(884,468)" d="m0 0 1 4h-15l1-2 8-1 5 1z" fill="#273039"/>
<path transform="translate(540,452)" d="m0 0 1 2h5l1-2 3 3h-2v2l-6 1-3-5z" fill="#25333F"/>
<path transform="translate(446,445)" d="m0 0 3 3v14h-1v-8h-2l-1-8z" fill="#1F3444"/>
<path transform="translate(998,445)" d="m0 0 5 1v2h2v2l-6 2-2-5z" fill="#152A3C"/>
<path transform="translate(877,413)" d="m0 0h4l-2 5-1 2h-3l-1-4z" fill="#152A3C"/>
<path transform="translate(1055,407)" d="m0 0 3 1h3l4 5h-2l-1 2-7-6z" fill="#EEAA36"/>
<path transform="translate(559,463)" d="m0 0h9l8 4-1 2-10-4-6-1z" fill="#2A323B"/>
<path transform="translate(875,132)" d="m0 0 10 2-3 3-3-1 1-2-5 2-3-1v-2z" fill="#25272E"/>
<path transform="translate(909,429)" d="m0 0h11l-2 4v-2h-7l-2 2v-2l-4 2v-3z" fill="#29323B"/>
<path transform="translate(944,441)" d="m0 0h1l2 16-2 3-1-2z" fill="#1F3545"/>
<path transform="translate(438,435)" d="m0 0h5l1 5-7-1-1 2 1-5z" fill="#172A3B"/>
<path transform="translate(874,418)" d="m0 0 2 3 8-1-1 3h-11z" fill="#283039"/>
<path transform="translate(415,411)" d="m0 0 10 1-1 5-3-1v-2h-2v-2l-4 1z" fill="#2A323B"/>
<path transform="translate(731,354)" d="m0 0 2 3-16 1v-2l12-1z" fill="#1F3545"/>
<path transform="translate(312,433)" d="m0 0 2 3-2 2v3l-1 2-4-5 1-2h2v-2z" fill="#E8A145"/>
<path transform="translate(549,429)" d="m0 0h10l-2 2h-7v2l-4-1z" fill="#26323D"/>
<path transform="translate(863,129)" d="m0 0h2v13l-2-1-1-10z" fill="#AB3F31"/>
<path transform="translate(576,469)" d="m0 0 2 3v8l-1 3h-2v-10z" fill="#2A323B"/>
<path transform="translate(869,411)" d="m0 0h2v12l-2-1-1-10z" fill="#28323C"/>
<path transform="translate(838,142)" d="m0 0h4v6h-4l-1-5z" fill="#08070A"/>
</svg>
